<svg width="20" height="20" xmlns="http://www.w3.org/2000/svg"><path d="M6 18H3V7h3v11zM4 6a1.923 1.923 0 01-1.407-.593A1.923 1.923 0 012 4c0-.543.198-1.012.593-1.407A1.923 1.923 0 014 2c.543 0 1.012.198 1.407.593C5.802 2.988 6 3.457 6 4s-.198 1.012-.593 1.407A1.923 1.923 0 014 6zm14 12h-3.218v-5.231c0-.86-.07-1.481-.208-1.863-.253-.645-.75-.968-1.487-.968-.739 0-1.258.287-1.558.86-.23.43-.346 1.063-.346 1.9V18H8V7.287h3.08v1.469h.034c.23-.478.6-.872 1.107-1.183.554-.382 1.2-.573 1.938-.573 1.5 0 2.55.49 3.149 1.47.461.787.692 2.006.692 3.654V18z" stroke="#979797" fill="#FFF" fill-rule="evenodd"/></svg>