<svg width="16" height="16" xmlns="http://www.w3.org/2000/svg"><g fill="none"><path d="M15.43 7.71v3.19a4.69 4.69 0 01-1.25 3.23 4.69 4.69 0 01-3.23 1.25H4.58a4.69 4.69 0 01-3.28-1.25A4.69 4.69 0 01.05 10.9V7.71c0-1.54-.05-2.59 0-3.18A4.69 4.69 0 011.3 1.3 4.69 4.69 0 014.53.05h3.18c1.53 0 2.6 0 3.19.05a4.69 4.69 0 013.23 1.2 4.69 4.69 0 011.25 3.23c.03.59.05 1.65.05 3.18z" fill="#FFF"/><path d="M8.48 1.38H4.89a8.75 8.75 0 00-1 .1 3.73 3.73 0 00-.72.19A2.62 2.62 0 001.7 3.16a3.73 3.73 0 00-.19.72 8.75 8.75 0 00-.1 1v5.66c.014.335.048.669.1 1 .038.243.101.48.19.71a2.59 2.59 0 001.46 1.47 3.8 3.8 0 00.72.19 8.75 8.75 0 001 .1h5.66a8.75 8.75 0 001-.1 3.43 3.43 0 00.71-.19 2.57 2.57 0 001.47-1.47 4.21 4.21 0 00.19-.71 8.75 8.75 0 00.1-1V4.89a8.75 8.75 0 00-.1-1 4.63 4.63 0 00-.19-.72 2.59 2.59 0 00-1.47-1.46 3.43 3.43 0 00-.71-.19 8.75 8.75 0 00-1-.1h-1l-1.06-.04z" fill="#4A4A4A"/><path d="M10.52 4.91a3.82 3.82 0 011.15 2.8 3.93 3.93 0 01-4 4 3.93 3.93 0 01-3.95-4 3.93 3.93 0 014-3.95 3.83 3.83 0 012.8 1.15z" fill="#FFF"/><path d="M9.53 9.53a2.55 2.55 0 000-3.63 2.45 2.45 0 00-1.82-.76 2.43 2.43 0 00-1.81.76 2.43 2.43 0 00-.76 1.81 2.45 2.45 0 00.76 1.82 2.55 2.55 0 003.63 0z" fill="#4A4A4A"/><path d="M12.49 2.94a.93.93 0 010 1.31.91.91 0 01-.66.27.92.92 0 01-.92-.92.92.92 0 01.92-.93.91.91 0 01.66.27z" fill="#FFF"/></g></svg>