<svg width="22" height="19" xmlns="http://www.w3.org/2000/svg"><path d="M18.137 5.75c.023.096.035.252.035.469 0 1.73-.41 3.401-1.23 5.012-.844 1.706-2.028 3.065-3.551 4.074C11.727 16.435 9.816 17 7.66 17c-2.063 0-3.95-.565-5.66-1.695.258.024.55.036.879.036 1.71 0 3.246-.54 4.605-1.622a3.38 3.38 0 01-2.162-.74 3.765 3.765 0 01-1.283-1.856c.234.024.457.036.668.036.328 0 .656-.036.984-.109-.843-.192-1.546-.637-2.109-1.334a3.687 3.687 0 01-.844-2.38v-.072a3.41 3.41 0 001.653.505A4.166 4.166 0 013.195 6.4a3.71 3.71 0 01-.457-1.82c0-.662.176-1.293.528-1.894a10.237 10.237 0 003.357 2.813 10.02 10.02 0 004.236 1.153 5.387 5.387 0 01-.07-.865c0-.673.164-1.304.492-1.893a3.662 3.662 0 011.336-1.388A3.497 3.497 0 0114.445 2c.54 0 1.037.108 1.494.325.457.216.862.504 1.213.865a7.395 7.395 0 002.356-.902A3.743 3.743 0 0117.89 4.38 7.778 7.778 0 0020 3.767a8.233 8.233 0 01-1.863 1.983z" stroke="#979797" fill="#FFF" fill-rule="evenodd"/></svg>