<svg width="17" height="17" xmlns="http://www.w3.org/2000/svg"><path d="M14.94 11.783c-.443-.443-1.184-.83-2.352-1.413-.589-.295-1.569-.785-1.806-1.009.995-1.223 1.572-2.604 1.572-3.813 0-.82 0-1.84-.46-2.751C11.482 1.977 10.557 1 8.5 1s-2.98.977-3.394 1.797c-.46.91-.46 1.931-.46 2.751 0 1.21.577 2.59 1.572 3.813-.238.225-1.218.715-1.806 1.008-1.168.585-1.909.97-2.352 1.414-.98.981-1.055 2.628-1.06 2.948A1.25 1.25 0 002.25 16h12.5A1.25 1.25 0 0016 14.73c-.005-.32-.08-1.966-1.06-2.947zm.033 3.186a.312.312 0 01-.223.094H2.25a.312.312 0 01-.313-.318c.003-.157.046-1.559.786-2.299.342-.341 1.057-.712 2.108-1.238 1.122-.56 1.744-.895 2.031-1.166l.633-.598-.55-.675C6.08 7.706 5.583 6.532 5.583 5.55c0-.76 0-1.618.36-2.33.43-.85 1.289-1.281 2.557-1.281 1.267 0 2.128.43 2.558 1.28.359.713.359 1.572.359 2.33 0 .984-.497 2.158-1.363 3.221l-.55.675.633.598c.287.271.909.605 2.031 1.166 1.052.526 1.767.896 2.108 1.238.602.602.778 1.729.786 2.3a.313.313 0 01-.09.223z" fill="#AEADB3"/></svg>