<svg width="130" height="130" xmlns="http://www.w3.org/2000/svg"><g fill="none"><path d="M.94 65.16C.94 29.67 29.72.91 65.19.91c35.49 0 64.25 28.76 64.25 64.25 0 35.49-28.76 64.25-64.25 64.25-35.47 0-64.25-28.76-64.25-64.25z" fill="#0A153E"/><g fill="#FFF"><path d="M79.61 32.96c-1.5-1.75-3.48-2.7-5.59-2.7-2.1 0-4.08.95-5.58 2.7L54.8 48.79c-.61.71-1.55 2.03-1.08 3.05.46 1 2.48 2.17 6.66 2.17h7.7v9.82c4.56 1.77 6.55 4.8 7.34 6.52.95 2.1 2.62 7.61-2.58 13.64l-4.61 5.36c.53 3.82 2.99 6.71 5.79 6.71 3.28 0 5.95-3.7 5.95-8.25v-33.8h7.71c4.18 0 6.19-1.17 6.65-2.17.46-1.03-.48-2.35-1.07-3.05L79.61 32.96z"/><path d="M70.53 74.49c-.46-1-2.47-2.17-6.65-2.17h-7.7v-9.81c-4.55-1.76-6.55-4.81-7.34-6.54-.95-2.09-2.62-7.6 2.58-13.63l4.62-5.36c-.54-3.81-3-6.71-5.8-6.71-3.27 0-5.94 3.71-5.94 8.26v33.8h-7.7c-4.19 0-6.2 1.16-6.66 2.17-.47 1.02.47 2.35 1.08 3.05l13.64 15.84c1.12 1.31 2.54 2.19 4.09 2.53 2.55.57 5.21-.38 7.07-2.53l13.64-15.84c.6-.72 1.55-2.05 1.07-3.06z"/></g></g></svg>