<svg width="130" height="130" xmlns="http://www.w3.org/2000/svg"><g fill="none"><path d="M.94 65.16C.94 29.67 29.72.91 65.19.91c35.49 0 64.25 28.76 64.25 64.25 0 35.49-28.76 64.25-64.25 64.25-35.47 0-64.25-28.76-64.25-64.25z" fill="#143A80"/><path d="M79.13 25.75l-30.45-.01c-5.22-.01-9.49 4.22-9.49 9.48l-.01 56.08c-.01 5.27 4.26 9.54 9.48 9.54l30.45.01c5.28 0 9.54-4.26 9.54-9.53l.03-56.07c-.01-5.26-4.27-9.5-9.55-9.5zM63.89 96.78a3.937 3.937 0 01-3.93-3.96c0-2.17 1.76-3.9 3.93-3.9 2.16 0 3.95 1.73 3.95 3.9-.01 2.19-1.8 3.96-3.95 3.96zm15.94-12.86l-31.87-.01.01-49.48 31.88.01-.02 49.48z" fill="#FFF"/></g></svg>