<svg width="130" height="130" xmlns="http://www.w3.org/2000/svg"><g fill="none"><path d="M.94 65.16C.94 29.67 29.72.91 65.19.91c35.49 0 64.25 28.76 64.25 64.25 0 35.49-28.76 64.25-64.25 64.25-35.47 0-64.25-28.76-64.25-64.25z" fill="#007CBE"/><path d="M81.89 44.91c0 9.4-7.62 17.03-17.03 17.03-9.4 0-17.03-7.63-17.03-17.03 0-9.4 7.63-17.02 17.03-17.02 9.41-.01 17.03 7.61 17.03 17.02zm17.02 38.81v-8.96a7.28 7.28 0 00-7.28-7.28H38.09c-4.02 0-7.28 3.25-7.28 7.28v8.96c6.98 9.51 17.81 15.88 30.21 17.01l.65-15.75h4.62l.65 15.93c13.13-.65 24.65-7.23 31.97-17.19zm-32.62-4.56h-4.61l-.6-5.81h5.81l-.6 5.81z" fill="#FFF"/></g></svg>